<svg width="20" height="20" viewBox="0 0 20 20" fill="none" xmlns="http://www.w3.org/2000/svg">
<g clip-path="url(#clip0_731_10149)">
<path fill-rule="evenodd" clip-rule="evenodd" d="M7.37467 4.7082L7.37467 14.622C7.37467 15.0114 6.99967 15.3301 6.54134 15.3301C6.08301 15.3301 5.70801 15.0114 5.70801 14.622L5.70801 4.7082C5.70801 4.31873 6.08301 4.00008 6.54134 4.00008C6.99967 4.00008 7.37467 4.31873 7.37467 4.7082Z" fill="black"/>
<path fill-rule="evenodd" clip-rule="evenodd" d="M13.3747 4.7082V14.622C13.3747 15.0114 12.9997 15.3301 12.5413 15.3301C12.083 15.3301 11.708 15.0114 11.708 14.622V4.7082C11.708 4.31873 12.083 4.00008 12.5413 4.00008C12.9997 4.00008 13.3747 4.31873 13.3747 4.7082Z" fill="black"/>
<path fill-rule="evenodd" clip-rule="evenodd" d="M15.1217 6.83317H13.2079C12.8185 6.83317 12.4998 6.45817 12.4998 5.99984C12.4998 5.5415 12.8185 5.1665 13.2079 5.1665H15.1217C15.5112 5.1665 15.8298 5.5415 15.8298 5.99984C15.8298 6.45817 15.5112 6.83317 15.1217 6.83317Z" fill="black"/>
<path fill-rule="evenodd" clip-rule="evenodd" d="M6 13.8332H4.08625C3.69678 13.8332 3.37813 13.4582 3.37813 12.9998C3.37813 12.5415 3.69678 12.1665 4.08625 12.1665H6C6.38947 12.1665 6.70813 12.5415 6.70813 12.9998C6.70813 13.4582 6.38947 13.8332 6 13.8332Z" fill="black"/>
<path fill-rule="evenodd" clip-rule="evenodd" d="M9.12169 9.33318H7.20794C6.81847 9.33318 6.49981 8.95818 6.49981 8.49985C6.49981 8.04151 6.81847 7.66651 7.20794 7.66651H9.12169C9.51116 7.66651 9.82981 8.04151 9.82981 8.49985C9.82981 8.95818 9.51116 9.33318 9.12169 9.33318Z" fill="black"/>
<path fill-rule="evenodd" clip-rule="evenodd" d="M12 13.8319H10.0863C9.69678 13.8319 9.37813 13.4569 9.37813 12.9986C9.37813 12.5402 9.69678 12.1652 10.0863 12.1652H12C12.3895 12.1652 12.7081 12.5402 12.7081 12.9986C12.7081 13.4569 12.3895 13.8319 12 13.8319Z" fill="black"/>
</g>
<defs>
<clipPath id="clip0_731_10149">
<rect width="20" height="20" fill="white"/>
</clipPath>
</defs>
</svg>
