<svg width="16" height="20" viewBox="0 0 16 20" fill="none" xmlns="http://www.w3.org/2000/svg">
<path d="M7.85113 19.6587C8.85692 19.6587 9.6707 18.845 9.6707 17.8392H6.03155C6.03155 18.845 6.84533 19.6587 7.85113 19.6587ZM14.2516 14.1726V8.68642C14.2516 5.62331 12.0938 3.0631 9.22267 2.44134V1.37154C9.22267 0.612621 8.61004 0 7.85113 0C7.09221 0 6.47959 0.612621 6.47959 1.37154V2.44134C3.6085 3.0631 1.45061 5.62331 1.45061 8.68642V14.1726L0.271087 15.3521C-0.30496 15.9281 0.0973583 16.9157 0.911138 16.9157H14.782C15.5958 16.9157 16.0072 15.9281 15.4312 15.3521L14.2516 14.1726ZM10.5942 10.5243H8.76549V12.353C8.76549 12.8559 8.35402 13.2674 7.85113 13.2674C7.34823 13.2674 6.93677 12.8559 6.93677 12.353V10.5243H5.10805C4.60515 10.5243 4.19369 10.1128 4.19369 9.60992V9.60078C4.19369 9.09788 4.60515 8.68642 5.10805 8.68642H6.93677V6.8577C6.93677 6.3548 7.34823 5.94334 7.85113 5.94334C8.35402 5.94334 8.76549 6.3548 8.76549 6.8577V8.68642H10.5942C11.0971 8.68642 11.5086 9.09788 11.5086 9.60078V9.60992C11.5086 10.1128 11.0971 10.5243 10.5942 10.5243Z" fill="black"/>
</svg>
