<svg width="20" height="20" viewBox="0 0 20 20" fill="none" xmlns="http://www.w3.org/2000/svg">
<path d="M10.8204 1.65538C10.5997 1.65883 10.3893 1.74971 10.2355 1.90808C10.0817 2.06645 9.99706 2.27937 10.0001 2.5001V3.33344H9.16675C8.66675 3.33344 8.33342 3.66677 8.33342 4.16677V8.33344C8.33342 8.83344 8.66675 9.16677 9.16675 9.16677H10.0001V10.0001C9.99852 10.1105 10.0189 10.2202 10.0601 10.3226C10.1013 10.4251 10.1624 10.5184 10.2399 10.597C10.3175 10.6757 10.4099 10.7381 10.5118 10.7807C10.6136 10.8234 10.723 10.8453 10.8334 10.8453C10.9439 10.8453 11.0532 10.8234 11.1551 10.7807C11.257 10.7381 11.3493 10.6757 11.4269 10.597C11.5044 10.5184 11.5656 10.4251 11.6067 10.3226C11.6479 10.2202 11.6683 10.1105 11.6667 10.0001V9.16677H12.5001C13.0001 9.16677 13.3334 8.83344 13.3334 8.33344V4.16677C13.3334 3.66677 13.0001 3.33344 12.5001 3.33344H11.6667V2.5001C11.6683 2.38861 11.6474 2.27795 11.6054 2.17466C11.5634 2.07138 11.5011 1.97758 11.4222 1.89881C11.3432 1.82004 11.2493 1.75791 11.146 1.7161C11.0426 1.67428 10.9319 1.65363 10.8204 1.65538ZM4.15373 7.48871C3.933 7.49216 3.72265 7.58304 3.56886 7.74141C3.41507 7.89978 3.33039 8.1127 3.33341 8.33344V9.16677H2.50008C2.00008 9.16677 1.66675 9.5001 1.66675 10.0001V14.1668C1.66675 14.6668 2.00008 15.0001 2.50008 15.0001H3.33341V15.8334C3.33185 15.9439 3.35225 16.0535 3.39343 16.156C3.43461 16.2584 3.49574 16.3517 3.57328 16.4304C3.65082 16.509 3.74321 16.5714 3.84509 16.6141C3.94697 16.6567 4.05631 16.6786 4.16675 16.6786C4.27719 16.6786 4.38652 16.6567 4.4884 16.6141C4.59028 16.5714 4.68268 16.509 4.76022 16.4304C4.83775 16.3517 4.89889 16.2584 4.94006 16.156C4.98124 16.0535 5.00164 15.9439 5.00008 15.8334V15.0001H5.83342C6.33342 15.0001 6.66675 14.6668 6.66675 14.1668V10.0001C6.66675 9.5001 6.33342 9.16677 5.83342 9.16677H5.00008V8.33344C5.00161 8.22194 4.98075 8.11128 4.93873 8.008C4.89672 7.90471 4.83441 7.81091 4.75549 7.73214C4.67657 7.65337 4.58265 7.59124 4.47928 7.54943C4.37592 7.50762 4.26522 7.48697 4.15373 7.48871ZM15.8204 9.15538C15.5997 9.15883 15.3893 9.24971 15.2355 9.40808C15.0817 9.56645 14.9971 9.77937 15.0001 10.0001V10.8334H14.1667C13.6667 10.8334 13.3334 11.1668 13.3334 11.6668V15.8334C13.3334 16.3334 13.6667 16.6668 14.1667 16.6668H15.0001V17.5001C14.9985 17.6105 15.0189 17.7202 15.0601 17.8226C15.1013 17.9251 15.1624 18.0184 15.2399 18.097C15.3175 18.1757 15.4099 18.2381 15.5118 18.2807C15.6136 18.3234 15.723 18.3453 15.8334 18.3453C15.9439 18.3453 16.0532 18.3234 16.1551 18.2807C16.257 18.2381 16.3493 18.1757 16.4269 18.097C16.5044 18.0184 16.5656 17.9251 16.6067 17.8226C16.6479 17.7202 16.6683 17.6105 16.6667 17.5001V16.6668H17.5001C18.0001 16.6668 18.3334 16.3334 18.3334 15.8334V11.6668C18.3334 11.1668 18.0001 10.8334 17.5001 10.8334H16.6667V10.0001C16.6683 9.88861 16.6474 9.77795 16.6054 9.67466C16.5634 9.57138 16.5011 9.47758 16.4222 9.39881C16.3432 9.32004 16.2493 9.25791 16.146 9.2161C16.0426 9.17428 15.9319 9.15363 15.8204 9.15538ZM3.33341 10.8334H5.00008V13.3334H4.29533C4.24854 13.3256 4.20117 13.3218 4.15373 13.322C4.11336 13.3229 4.0731 13.3267 4.03328 13.3334H3.33341V10.8334Z" fill="black"/>
</svg>
