<svg width="16" height="16" viewBox="0 0 16 16" fill="none" xmlns="http://www.w3.org/2000/svg">
<path d="M7.99999 9.80809L2.22499 15.5831C1.97206 15.8164 1.67059 15.9331 1.32059 15.9331C0.970595 15.9331 0.669361 15.8164 0.416895 15.5831C0.183561 15.3306 0.0668945 15.0294 0.0668945 14.6794C0.0668945 14.3294 0.183561 14.0279 0.416895 13.775L6.19189 7.99999L0.416895 2.22499C0.183561 1.97206 0.0668945 1.67059 0.0668945 1.32059C0.0668945 0.970595 0.183561 0.669361 0.416895 0.416895C0.669361 0.183561 0.970595 0.0668945 1.32059 0.0668945C1.67059 0.0668945 1.97206 0.183561 2.22499 0.416895L7.99999 6.19189L13.775 0.416895C14.0279 0.183561 14.3294 0.0668945 14.6794 0.0668945C15.0294 0.0668945 15.3306 0.183561 15.5831 0.416895C15.8164 0.669361 15.9331 0.970595 15.9331 1.32059C15.9331 1.67059 15.8164 1.97206 15.5831 2.22499L9.80809 7.99999L15.5831 13.775C15.8164 14.0279 15.9331 14.3294 15.9331 14.6794C15.9331 15.0294 15.8164 15.3306 15.5831 15.5831C15.3306 15.8164 15.0294 15.9331 14.6794 15.9331C14.3294 15.9331 14.0279 15.8164 13.775 15.5831L7.99999 9.80809Z" fill="white"/>
</svg>
