<svg width="20" height="20" viewBox="0 0 20 20" fill="none" xmlns="http://www.w3.org/2000/svg">
<g clip-path="url(#clip0_731_10182)">
<path fill-rule="evenodd" clip-rule="evenodd" d="M10.8332 4.16699V15.8337C10.8332 16.292 10.4582 16.667 9.99984 16.667C9.5415 16.667 9.1665 16.292 9.1665 15.8337V4.16699C9.1665 3.70866 9.5415 3.33366 9.99984 3.33366C10.4582 3.33366 10.8332 3.70866 10.8332 4.16699Z" fill="black"/>
<path fill-rule="evenodd" clip-rule="evenodd" d="M15.8333 10.8337H4.16659C3.70825 10.8337 3.33325 10.4587 3.33325 10.0003C3.33325 9.54199 3.70825 9.16699 4.16659 9.16699H15.8333C16.2916 9.16699 16.6666 9.54199 16.6666 10.0003C16.6666 10.4587 16.2916 10.8337 15.8333 10.8337Z" fill="black"/>
</g>
<defs>
<clipPath id="clip0_731_10182">
<rect width="20" height="20" fill="white"/>
</clipPath>
</defs>
</svg>
