<svg width="28" height="26" viewBox="0 0 28 26" fill="none" xmlns="http://www.w3.org/2000/svg">
<g clip-path="url(#clip0_501_2)">
<path d="M13.4634 17.7348L10.1898 9.52996L9.28308 8.56974V8.21611H13.8121V8.56974L12.7119 9.52996L14.7548 14.9253L16.5143 9.52996L15.4141 8.56974V8.21611H18.7124V8.56974L17.6775 9.52996L14.7526 17.7348H13.4589H13.4634Z" fill="#024551"/>
<path d="M2.85512 12.057L2.92262 12.4646L3.25785 12.2706C3.3051 12.2436 4.4503 11.5707 5.03078 10.279C5.6135 8.98477 5.39526 7.59479 5.38626 7.53585L5.31876 7.12819L4.98353 7.3222C4.93628 7.34921 3.78883 8.0221 3.21061 9.31385C2.63013 10.6056 2.84837 11.998 2.85737 12.057H2.85512Z" fill="#024551"/>
<path d="M4.66405 13.5452L4.37381 13.2824L4.23207 13.6631C4.21182 13.7195 3.72809 15.0383 4.04082 16.4332C4.35581 17.8305 5.34127 18.7343 5.38401 18.7736L5.67425 19.0363L5.81825 18.6557C5.83849 18.5992 6.32447 17.2805 6.00949 15.8856C5.69675 14.4882 4.70904 13.582 4.6663 13.5452H4.66405Z" fill="#024551"/>
<path d="M8.59462 21.2097C9.52383 22.2215 10.795 22.4253 10.8468 22.4327L11.2158 22.4892L11.1595 22.0864C11.1505 22.0275 10.9435 20.6252 10.0143 19.6159C9.0851 18.6066 7.8139 18.4028 7.75991 18.3929L7.38867 18.3364L7.44717 18.7392C7.45617 18.7981 7.66766 20.2028 8.59462 21.2097Z" fill="#024551"/>
<path d="M3.51884 16.6935L3.49184 16.2932C3.48734 16.2343 3.3816 14.8247 2.52889 13.7515C1.67393 12.6783 0.413982 12.3811 0.359984 12.3689L0 12.2854L0.0269988 12.6857C0.0314986 12.7446 0.134994 14.1567 0.992206 15.2299C1.84717 16.3006 3.10486 16.6002 3.15886 16.6125L3.51884 16.696V16.6935Z" fill="#024551"/>
<path d="M5.19949 19.4907C3.9418 19.1935 2.7516 19.7706 2.69985 19.7952L2.36237 19.9622L2.6031 20.2692C2.6391 20.3134 3.48957 21.3767 4.75851 21.6788C5.0195 21.7402 5.27599 21.7647 5.51898 21.7647C6.46618 21.7647 7.2199 21.3939 7.25815 21.3718L7.59113 21.2048L7.35264 20.9003C7.31665 20.8561 6.46843 19.7927 5.19724 19.4907H5.19949Z" fill="#024551"/>
<path d="M2.26116 9.22053L2.54689 9.49312L2.69764 9.11248C2.72014 9.05845 3.22411 7.74951 2.93163 6.34725C2.64139 4.94254 1.67168 4.00933 1.63118 3.97004L1.34545 3.69745L1.1947 4.07809C1.1722 4.13212 0.668227 5.44106 0.960714 6.84578C1.2532 8.24804 2.22291 9.18369 2.26341 9.22299L2.26116 9.22053Z" fill="#024551"/>
<path d="M4.11056 5.66454L4.45704 5.49263C4.50654 5.46807 5.68774 4.87377 6.33796 3.62377C6.99268 2.37132 6.85319 0.969057 6.84644 0.910118L6.80369 0.497544L6.4572 0.666994C6.40771 0.691552 5.22651 1.2834 4.57404 2.53585C3.92157 3.78585 4.05881 5.19057 4.06556 5.24951L4.10831 5.66208L4.11056 5.66454Z" fill="#024551"/>
<path d="M22.6835 7.12819L22.616 7.53585C22.607 7.59479 22.3887 8.98477 22.9715 10.279C23.5519 11.5707 24.6949 12.2436 24.7444 12.2706L25.0796 12.4646L25.1471 12.057C25.1561 11.998 25.3744 10.6081 24.7939 9.31385C24.2134 8.01965 23.0682 7.34921 23.021 7.31974L22.6857 7.12574L22.6835 7.12819Z" fill="#024551"/>
<path d="M23.6285 13.2824L23.3382 13.5452C23.2955 13.582 22.3078 14.4882 21.995 15.8856C21.6823 17.2805 22.166 18.5992 22.1863 18.6557L22.3303 19.0363L22.6205 18.7736C22.6633 18.7367 23.6487 17.8305 23.9637 16.4332C24.2764 15.0383 23.7927 13.7195 23.7725 13.6655L23.6307 13.2849L23.6285 13.2824Z" fill="#024551"/>
<path d="M19.4054 21.2097C20.3323 20.2028 20.5438 18.7981 20.5528 18.7392L20.6113 18.3364L20.2401 18.3929C20.1861 18.4003 18.9149 18.6066 17.9857 19.6159C17.0587 20.6252 16.8495 22.0275 16.8405 22.0889L16.7842 22.4917L17.1532 22.4352C17.2072 22.4278 18.4784 22.224 19.4054 21.2122V21.2097Z" fill="#024551"/>
<path d="M27.64 12.3664C27.586 12.3787 26.3283 12.6758 25.4711 13.749C24.6161 14.8222 24.5126 16.2318 24.5081 16.2908L24.4811 16.6911L24.8411 16.6076C24.8951 16.5953 26.1528 16.2957 27.0078 15.225C27.865 14.1518 27.9685 12.7421 27.973 12.6807L28 12.2805L27.64 12.3639V12.3664Z" fill="#024551"/>
<path d="M22.8027 19.4907C21.5315 19.7927 20.6833 20.8536 20.6473 20.9003L20.4088 21.2048L20.7418 21.3718C20.7823 21.3915 21.5338 21.7647 22.481 21.7647C22.724 21.7647 22.9804 21.7402 23.2414 21.6788C24.5126 21.3767 25.3631 20.3158 25.3968 20.2692L25.6376 19.9622L25.3001 19.7952C25.2506 19.7706 24.0604 19.1911 22.8005 19.4907H22.8027Z" fill="#024551"/>
<path d="M25.4531 9.49312L25.7389 9.22053C25.7794 9.18124 26.7491 8.24804 27.0416 6.84332C27.334 5.43861 26.8278 4.13212 26.8076 4.07564L26.6568 3.69499L26.3711 3.96758C26.3306 4.00688 25.3609 4.94008 25.0706 6.34479C24.7782 7.74705 25.2821 9.05599 25.3046 9.11002L25.4554 9.49067L25.4531 9.49312Z" fill="#024551"/>
<path d="M23.543 5.49509L23.8894 5.66699L23.9322 5.25442C23.9389 5.19548 24.0762 3.79322 23.4237 2.54077C22.7712 1.28831 21.59 0.696464 21.5405 0.671906L21.1941 0.502456L21.1513 0.915029C21.1446 0.973969 21.0073 2.37623 21.6598 3.62868C22.3123 4.87868 23.4912 5.47299 23.543 5.49754V5.49509Z" fill="#024551"/>
<path d="M18.0622 23.1326C16.8248 22.6979 15.6031 23.1547 15.5513 23.1744L15.2048 23.307L15.4163 23.6336C15.4411 23.6729 15.9226 24.4072 16.7415 24.9229C16.953 25.0555 17.1847 25.1758 17.439 25.2642C18.6764 25.6989 19.9004 25.2446 19.9521 25.2249L20.3009 25.0923L20.0849 24.7633C20.0534 24.7141 19.2884 23.5624 18.0622 23.1326Z" fill="#024551"/>
<path d="M9.93103 23.1793C11.1685 22.7446 12.3902 23.2014 12.4419 23.221L12.7884 23.3536L12.5769 23.6803C12.5522 23.7195 12.0707 24.4538 11.2517 24.9695C11.0402 25.1022 10.8085 25.2225 10.5543 25.3109C9.31681 25.7456 8.09287 25.2913 8.04112 25.2716L7.69238 25.139L7.90837 24.8099C7.93987 24.7608 8.70484 23.609 9.93103 23.1793Z" fill="#024551"/>
</g>
<defs>
<clipPath id="clip0_501_2">
<rect width="28" height="25" fill="white" transform="translate(0 0.5)"/>
</clipPath>
</defs>
</svg>
