<svg width="72" height="72" viewBox="0 0 72 72" fill="none" xmlns="http://www.w3.org/2000/svg">
<circle cx="36" cy="36" r="35.5" fill="white" stroke="#0A4550"/>
<g clip-path="url(#clip0_576_20779)">
<path d="M35.194 45.8862L29.5544 33.0867L27.9924 31.5888V31.0371H35.7948V31.5888L33.8994 33.0867L37.4188 41.5035L40.4498 33.0867L38.5545 31.5888V31.0371H44.2367V31.5888L42.4537 33.0867L37.4149 45.8862H35.1862H35.194Z" fill="#0A4550"/>
<path d="M16.9186 37.0287L17.0349 37.6647L17.6124 37.362C17.6938 37.3199 19.6667 36.2702 20.6667 34.2551C21.6706 32.2361 21.2946 30.0677 21.2791 29.9758L21.1629 29.3398L20.5853 29.6425C20.5039 29.6846 18.5272 30.7343 17.531 32.7495C16.531 34.7646 16.907 36.9368 16.9225 37.0287H16.9186Z" fill="#0A4550"/>
<path d="M20.0349 39.3504L19.5349 38.9404L19.2908 39.5342C19.2559 39.6224 18.4225 41.6796 18.9613 43.8557C19.5039 46.0355 21.2016 47.4453 21.2753 47.5066L21.7753 47.9166L22.0233 47.3227C22.0582 47.2346 22.8954 45.1774 22.3528 43.0013C21.814 40.8215 20.1125 39.4078 20.0388 39.3504H20.0349Z" fill="#0A4550"/>
<path d="M26.8063 51.3075C28.4071 52.8859 30.597 53.2039 30.6862 53.2154L31.3218 53.3035L31.2249 52.6752C31.2094 52.5833 30.8528 50.3957 29.2521 48.8212C27.6513 47.2466 25.4613 46.9286 25.3683 46.9133L24.7288 46.8252L24.8295 47.4535C24.845 47.5454 25.2094 49.7368 26.8063 51.3075Z" fill="#0A4550"/>
<path d="M18.0621 44.2615L18.0156 43.637C18.0078 43.5451 17.8256 41.3461 16.3566 39.6719C14.8837 37.9977 12.7132 37.5342 12.6202 37.515L12 37.3848L12.0465 38.0092C12.0543 38.1012 12.2326 40.304 13.7093 41.9782C15.1822 43.6485 17.3489 44.1159 17.4419 44.1351L18.0621 44.2653V44.2615Z" fill="#0A4550"/>
<path d="M20.9575 48.6255C18.7908 48.1619 16.7404 49.0622 16.6512 49.1005L16.0698 49.361L16.4846 49.8399C16.5466 49.9089 18.0117 51.5677 20.1978 52.0389C20.6474 52.1347 21.0892 52.173 21.5079 52.173C23.1397 52.173 24.4381 51.5945 24.504 51.5601L25.0777 51.2995L24.6668 50.8245C24.6048 50.7555 23.1435 49.0967 20.9536 48.6255H20.9575Z" fill="#0A4550"/>
<path d="M15.8954 32.6043L16.3876 33.0295L16.6473 32.4357C16.6861 32.3514 17.5543 30.3095 17.0504 28.122C16.5504 25.9306 14.8799 24.4748 14.8101 24.4135L14.3178 23.9883L14.0581 24.5821C14.0194 24.6664 13.1512 26.7083 13.655 28.8997C14.1589 31.0872 15.8295 32.5468 15.8992 32.6081L15.8954 32.6043Z" fill="#0A4550"/>
<path d="M19.0814 27.0566L19.6784 26.7884C19.7636 26.7501 21.7985 25.823 22.9187 23.873C24.0466 21.9192 23.8063 19.7317 23.7947 19.6397L23.721 18.9961L23.1241 19.2604C23.0388 19.2987 21.0039 20.222 19.8799 22.1759C18.7559 24.1259 18.9923 26.3172 19.0039 26.4092L19.0776 27.0528L19.0814 27.0566Z" fill="#0A4550"/>
<path d="M51.0778 29.3398L50.9616 29.9757C50.946 30.0677 50.5701 32.236 51.574 34.255C52.574 36.2701 54.543 37.3198 54.6283 37.362L55.2058 37.6646L55.3221 37.0287C55.3376 36.9367 55.7135 34.7684 54.7135 32.7494C53.7135 30.7304 51.7406 29.6846 51.6592 29.6386L51.0817 29.3359L51.0778 29.3398Z" fill="#0A4550"/>
<path d="M52.7058 38.9404L52.2058 39.3504C52.1321 39.4078 50.4305 40.8215 49.8918 43.0013C49.353 45.1774 50.1864 47.2346 50.2212 47.3227L50.4693 47.9166L50.9693 47.5066C51.0429 47.4492 52.7406 46.0355 53.2833 43.8557C53.822 41.6796 52.9887 39.6224 52.9538 39.5381L52.7096 38.9443L52.7058 38.9404Z" fill="#0A4550"/>
<path d="M45.4305 51.3075C47.0274 49.7368 47.3918 47.5454 47.4073 47.4535L47.5081 46.8252L46.8685 46.9133C46.7755 46.9248 44.5856 47.2466 42.9848 48.8212C41.3879 50.3957 41.0274 52.5833 41.0119 52.679L40.915 53.3073L41.5506 53.2192C41.6437 53.2077 43.8336 52.8897 45.4305 51.3113V51.3075Z" fill="#0A4550"/>
<path d="M59.6167 37.511C59.5237 37.5302 57.357 37.9938 55.8802 39.6679C54.4074 41.3421 54.2291 43.5411 54.2213 43.633L54.1748 44.2575L54.795 44.1272C54.888 44.1081 57.0547 43.6407 58.5276 41.9704C60.0043 40.2962 60.1826 38.0972 60.1904 38.0014L60.2369 37.377L59.6167 37.5072V37.511Z" fill="#0A4550"/>
<path d="M51.2833 48.625C49.0934 49.0962 47.6321 50.7512 47.5701 50.824L47.1592 51.2991L47.7329 51.5596C47.8027 51.5902 49.0972 52.1726 50.729 52.1726C51.1476 52.1726 51.5895 52.1342 52.0391 52.0385C54.2291 51.5673 55.6942 49.9122 55.7523 49.8395L56.1671 49.3606L55.5857 49.1001C55.5004 49.0618 53.45 48.1576 51.2794 48.625H51.2833Z" fill="#0A4550"/>
<path d="M55.8492 33.0295L56.3414 32.6042C56.4112 32.5429 58.0818 31.0871 58.5856 28.8958C59.0895 26.7044 58.2174 24.6663 58.1825 24.5782L57.9228 23.9844L57.4306 24.4096C57.3608 24.4709 55.6903 25.9267 55.1903 28.1181C54.6864 30.3056 55.5546 32.3475 55.5934 32.4318L55.8531 33.0256L55.8492 33.0295Z" fill="#0A4550"/>
<path d="M52.5585 26.7924L53.1554 27.0606L53.2291 26.417C53.2407 26.325 53.4771 24.1375 52.3531 22.1837C51.229 20.2298 49.1941 19.3066 49.1089 19.2682L48.512 19.0039L48.4383 19.6475C48.4267 19.7395 48.1903 21.927 49.3143 23.8808C50.4383 25.8308 52.4694 26.7579 52.5585 26.7962V26.7924Z" fill="#0A4550"/>
<path d="M43.1166 54.3063C40.9848 53.6282 38.8801 54.3408 38.7909 54.3714L38.194 54.5783L38.5584 55.0879C38.601 55.1491 39.4305 56.2946 40.8413 57.0991C41.2057 57.306 41.6049 57.4937 42.0429 57.6317C44.1747 58.3098 46.2832 57.601 46.3724 57.5704L46.9732 57.3635L46.6011 56.8501C46.5468 56.7735 45.229 54.9768 43.1166 54.3063Z" fill="#0A4550"/>
<path d="M29.1087 54.3796C31.2405 53.7015 33.3452 54.414 33.4343 54.4447L34.0312 54.6516L33.6669 55.1611C33.6242 55.2224 32.7948 56.3679 31.3839 57.1724C31.0196 57.3793 30.6203 57.567 30.1823 57.7049C28.0505 58.383 25.942 57.6743 25.8529 57.6436L25.2521 57.4367L25.6242 56.9234C25.6784 56.8468 26.9963 55.05 29.1087 54.3796Z" fill="#0A4550"/>
</g>
<defs>
<clipPath id="clip0_576_20779">
<rect width="48.2368" height="39" fill="white" transform="translate(12 19)"/>
</clipPath>
</defs>
</svg>
