<svg width="33" height="33" viewBox="0 0 33 33" fill="none" xmlns="http://www.w3.org/2000/svg">
<path d="M16.5 33C25.6127 33 33 25.6127 33 16.5C33 7.3873 25.6127 0 16.5 0C7.3873 0 0 7.3873 0 16.5C0 25.6127 7.3873 33 16.5 33Z" fill="#C9F9CD"/>
<path d="M23.4841 10.016C22.1821 9.40758 20.7899 8.96414 19.3333 8.71149C19.1554 9.03375 18.9466 9.46946 18.8022 9.81492C17.2553 9.58289 15.7213 9.58289 14.2028 9.81492C14.0584 9.46946 13.8445 9.03375 13.664 8.71149C12.2074 8.96414 10.8126 9.40758 9.51064 10.0186C6.88353 13.9889 6.17197 17.8587 6.52775 21.6769C8.27056 22.9788 9.95923 23.7677 11.6195 24.2859C12.0295 23.7213 12.3956 23.1232 12.7101 22.489C12.1094 22.2621 11.537 21.9811 10.9931 21.6537C11.1374 21.548 11.2767 21.4345 11.4133 21.3211C14.7236 22.8705 18.3201 22.8705 21.5917 21.3211C21.7284 21.4371 21.8702 21.548 22.012 21.6537C21.468 21.9811 20.8905 22.2621 20.2924 22.4916C20.6069 23.1232 20.9704 23.7239 21.3829 24.2885C23.0458 23.7703 24.7345 22.9814 26.4773 21.6769C26.8949 17.2528 25.7631 13.4166 23.4867 10.016H23.4841ZM13.1587 19.3308C12.1661 19.3308 11.3488 18.4027 11.3488 17.2734C11.3488 16.1442 12.1455 15.2135 13.1587 15.2135C14.1719 15.2135 14.984 16.1416 14.9685 17.2734C14.9685 18.4027 14.1719 19.3308 13.1587 19.3308ZM19.8438 19.3308C18.8512 19.3308 18.0339 18.4027 18.0339 17.2734C18.0339 16.1442 18.8306 15.2135 19.8438 15.2135C20.857 15.2135 21.6691 16.1416 21.6536 17.2734C21.6536 18.4027 20.857 19.3308 19.8438 19.3308Z" fill="#094550"/>
</svg>
