<svg width="67" height="55" viewBox="0 0 67 55" fill="none" xmlns="http://www.w3.org/2000/svg">
<g clip-path="url(#clip0_16_7890)">
<path d="M32.2158 37.9166L24.3825 19.8661L22.2129 17.7536V16.9756H33.0503V17.7536L30.4176 19.8661L35.306 31.7359L39.5161 19.8661L36.8834 17.7536V16.9756H44.7759V17.7536L42.2994 19.8661L35.3006 37.9166H32.205H32.2158Z" fill="#024551"/>
<path d="M6.83205 25.4254L6.99356 26.3222L7.79573 25.8954C7.90879 25.836 10.6491 24.3556 12.0381 21.5138C13.4325 18.6665 12.9102 15.6086 12.8887 15.4789L12.7272 14.582L11.925 15.0088C11.812 15.0683 9.06628 16.5486 7.68267 19.3905C6.29368 22.2323 6.8159 25.2957 6.83743 25.4254H6.83205Z" fill="#024551"/>
<path d="M11.1604 28.6997L10.4659 28.1216L10.1268 28.959C10.0783 29.0833 8.92082 31.9845 9.66915 35.0533C10.4229 38.1275 12.7809 40.1157 12.8832 40.2021L13.5777 40.7802L13.9223 39.9428C13.9707 39.8185 15.1336 36.9173 14.3799 33.8485C13.6315 30.7743 11.2681 28.7807 11.1658 28.6997H11.1604Z" fill="#024551"/>
<path d="M20.5658 45.5615C22.7893 47.7874 25.8311 48.2358 25.9549 48.252L26.8378 48.3763L26.7032 47.4902C26.6817 47.3606 26.1864 44.2756 23.9629 42.0551C21.7395 39.8345 18.6977 39.3861 18.5685 39.3645L17.6802 39.2402L17.8202 40.1263C17.8417 40.256 18.3478 43.3463 20.5658 45.5615V45.5615Z" fill="#024551"/>
<path d="M8.42009 35.6257L8.35548 34.745C8.34472 34.6154 8.09168 31.5142 6.05127 29.1532C4.00546 26.7922 0.990599 26.1384 0.86139 26.1114L0 25.9277L0.0646043 26.8084C0.0753716 26.938 0.323021 30.0446 2.37421 32.4056C4.42001 34.7612 7.42949 35.4204 7.5587 35.4474L8.42009 35.6311V35.6257Z" fill="#024551"/>
<path d="M12.4417 41.7794C9.43218 41.1256 6.58421 42.3953 6.46039 42.4493L5.65283 42.8167L6.22889 43.492C6.31503 43.5893 8.35006 45.9287 11.3865 46.5932C12.011 46.7283 12.6247 46.7823 13.2061 46.7823C15.4727 46.7823 17.2762 45.9665 17.3677 45.9179L18.1645 45.5505L17.5939 44.8806C17.5077 44.7833 15.4781 42.4439 12.4363 41.7794H12.4417Z" fill="#024551"/>
<path d="M5.41064 19.185L6.09436 19.7847L6.45507 18.9472C6.50891 18.8284 7.71485 15.9487 7.01497 12.8637C6.32048 9.77337 4.00011 7.72033 3.9032 7.63388L3.21947 7.03418L2.85877 7.87161C2.80493 7.99047 1.59898 10.8701 2.29886 13.9605C2.99874 17.0455 5.31911 19.1039 5.41602 19.1904L5.41064 19.185Z" fill="#024551"/>
<path d="M9.83609 11.362L10.6652 10.9838C10.7836 10.9298 13.6101 9.62233 15.1659 6.87233C16.7326 4.11693 16.3988 1.03196 16.3827 0.902291L16.2804 -0.00537109L15.4513 0.367419C15.3328 0.421446 12.5064 1.72351 10.9451 4.47891C9.38386 7.22891 9.71227 10.3193 9.72842 10.449L9.83071 11.3566L9.83609 11.362Z" fill="#024551"/>
<path d="M54.2783 14.5821L54.1168 15.4789C54.0952 15.6086 53.573 18.6665 54.9674 21.5138C56.3564 24.3556 59.0913 25.836 59.2097 25.8954L60.0119 26.3222L60.1734 25.4254C60.195 25.2957 60.7172 22.2378 59.3282 19.3905C57.9392 16.5433 55.1989 15.0683 55.0858 15.0035L54.2837 14.5767L54.2783 14.5821Z" fill="#024551"/>
<path d="M56.5396 28.1216L55.8451 28.6997C55.7428 28.7807 53.3794 30.7743 52.6311 33.8485C51.8827 36.9173 53.0402 39.8185 53.0887 39.9428L53.4332 40.7802L54.1277 40.2021C54.23 40.1211 56.5881 38.1275 57.3418 35.0533C58.0901 31.9845 56.9326 29.0833 56.8842 28.9644L56.545 28.127L56.5396 28.1216Z" fill="#024551"/>
<path d="M46.4341 45.5615C48.6522 43.3463 49.1583 40.256 49.1798 40.1263L49.3198 39.2402L48.4315 39.3645C48.3022 39.3807 45.2605 39.8345 43.037 42.0551C40.8189 44.2756 40.3182 47.3606 40.2967 47.4956L40.1621 48.3817L41.045 48.2574C41.1742 48.2412 44.216 47.7928 46.4341 45.5669V45.5615Z" fill="#024551"/>
<path d="M66.1388 26.1061C66.0096 26.1331 63.0001 26.7868 60.9489 29.1478C58.9031 31.5088 58.6555 34.61 58.6447 34.7397L58.5801 35.6203L59.4415 35.4366C59.5707 35.4096 62.5802 34.7505 64.626 32.3949C66.6771 30.0339 66.9248 26.9327 66.9356 26.7976L67.0002 25.917L66.1388 26.1007V26.1061Z" fill="#024551"/>
<path d="M54.5637 41.7795C51.5219 42.4441 49.4923 44.778 49.4061 44.8807L48.8354 45.5506L49.6322 45.918C49.7291 45.9612 51.5273 46.7825 53.7938 46.7825C54.3753 46.7825 54.989 46.7284 55.6135 46.5934C58.6553 45.9288 60.6903 43.5948 60.7711 43.4922L61.3471 42.8168L60.5396 42.4495C60.4211 42.3954 57.5732 41.1204 54.5583 41.7795H54.5637Z" fill="#024551"/>
<path d="M60.9055 19.7847L61.5892 19.185C61.6861 19.0986 64.0065 17.0455 64.7064 13.9551C65.4063 10.8648 64.1949 7.9905 64.1465 7.86624L63.7858 7.02881L63.102 7.62851C63.0051 7.71496 60.6848 9.768 59.9903 12.8584C59.2904 15.9433 60.4963 18.823 60.5502 18.9419L60.9109 19.7793L60.9055 19.7847Z" fill="#024551"/>
<path d="M56.3351 10.9892L57.1642 11.3674L57.2664 10.4597C57.2826 10.33 57.611 7.24506 56.0497 4.48965C54.4885 1.73425 51.662 0.432188 51.5436 0.378161L50.7145 0.00537109L50.6122 0.913033C50.5961 1.0427 50.2676 4.12767 51.8289 6.88307C53.3902 9.63307 56.2112 10.9405 56.3351 10.9946V10.9892Z" fill="#024551"/>
<path d="M43.2201 49.7917C40.2591 48.8354 37.3357 49.8403 37.2119 49.8835L36.3828 50.1753L36.8889 50.8939C36.9481 50.9803 38.1002 52.5957 40.0599 53.7303C40.5659 54.0221 41.1205 54.2868 41.7288 54.4813C44.6898 55.4376 47.6186 54.4381 47.7424 54.3948L48.5769 54.1031L48.06 53.3791C47.9847 53.2711 46.1542 50.7372 43.2201 49.7917Z" fill="#024551"/>
<path d="M23.7635 49.8942C26.7245 48.938 29.6479 49.9429 29.7717 49.9861L30.6008 50.2778L30.0947 50.9964C30.0355 51.0828 28.8834 52.6983 26.9237 53.8328C26.4177 54.1246 25.8631 54.3893 25.2548 54.5838C22.2938 55.5401 19.365 54.5406 19.2412 54.4974L18.4067 54.2056L18.9236 53.4817C18.9989 53.3736 20.8294 50.8397 23.7635 49.8942Z" fill="#024551"/>
</g>
<defs>
<clipPath id="clip0_16_7890">
<rect width="67" height="55" fill="white"/>
</clipPath>
</defs>
</svg>
