<svg width="28" height="28" viewBox="0 0 28 28" fill="none" xmlns="http://www.w3.org/2000/svg">
<path d="M17.7923 11.5871H16.3118V6.93118C16.3118 6.41903 15.8927 6 15.3806 6H11.6559C11.1437 6 10.7247 6.41903 10.7247 6.93118V11.5871H9.24414C8.41539 11.5871 7.99636 12.5927 8.583 13.1794L12.8571 17.4535C13.2203 17.8166 13.8069 17.8166 14.1701 17.4535L18.4442 13.1794C19.0308 12.5927 18.6211 11.5871 17.7923 11.5871ZM7 20.8988C7 21.411 7.41903 21.83 7.93118 21.83H19.1053C19.6174 21.83 20.0365 21.411 20.0365 20.8988C20.0365 20.3867 19.6174 19.9676 19.1053 19.9676H7.93118C7.41903 19.9676 7 20.3867 7 20.8988Z" fill="#0A4550"/>
</svg>
