<svg width="20" height="6" viewBox="0 0 20 6" fill="none" xmlns="http://www.w3.org/2000/svg">
<path d="M2.99984 0.666992C1.7165 0.666992 0.666504 1.71699 0.666504 3.00033C0.666504 4.28366 1.7165 5.33366 2.99984 5.33366C4.28317 5.33366 5.33317 4.28366 5.33317 3.00033C5.33317 1.71699 4.28317 0.666992 2.99984 0.666992ZM16.9998 0.666992C15.7165 0.666992 14.6665 1.71699 14.6665 3.00033C14.6665 4.28366 15.7165 5.33366 16.9998 5.33366C18.2832 5.33366 19.3332 4.28366 19.3332 3.00033C19.3332 1.71699 18.2832 0.666992 16.9998 0.666992ZM9.99984 0.666992C8.7165 0.666992 7.6665 1.71699 7.6665 3.00033C7.6665 4.28366 8.7165 5.33366 9.99984 5.33366C11.2832 5.33366 12.3332 4.28366 12.3332 3.00033C12.3332 1.71699 11.2832 0.666992 9.99984 0.666992Z" fill="black"/>
</svg>
