<svg width="28" height="28" viewBox="0 0 28 28" fill="none" xmlns="http://www.w3.org/2000/svg">
<path d="M7.00016 16.3335C6.3585 16.3335 5.8335 16.8585 5.8335 17.5002V21.0002C5.8335 21.6418 6.3585 22.1668 7.00016 22.1668H10.5002C11.1418 22.1668 11.6668 21.6418 11.6668 21.0002C11.6668 20.3585 11.1418 19.8335 10.5002 19.8335H8.16683V17.5002C8.16683 16.8585 7.64183 16.3335 7.00016 16.3335ZM7.00016 11.6668C7.64183 11.6668 8.16683 11.1418 8.16683 10.5002V8.16683H10.5002C11.1418 8.16683 11.6668 7.64183 11.6668 7.00016C11.6668 6.3585 11.1418 5.8335 10.5002 5.8335H7.00016C6.3585 5.8335 5.8335 6.3585 5.8335 7.00016V10.5002C5.8335 11.1418 6.3585 11.6668 7.00016 11.6668ZM19.8335 19.8335H17.5002C16.8585 19.8335 16.3335 20.3585 16.3335 21.0002C16.3335 21.6418 16.8585 22.1668 17.5002 22.1668H21.0002C21.6418 22.1668 22.1668 21.6418 22.1668 21.0002V17.5002C22.1668 16.8585 21.6418 16.3335 21.0002 16.3335C20.3585 16.3335 19.8335 16.8585 19.8335 17.5002V19.8335ZM16.3335 7.00016C16.3335 7.64183 16.8585 8.16683 17.5002 8.16683H19.8335V10.5002C19.8335 11.1418 20.3585 11.6668 21.0002 11.6668C21.6418 11.6668 22.1668 11.1418 22.1668 10.5002V7.00016C22.1668 6.3585 21.6418 5.8335 21.0002 5.8335H17.5002C16.8585 5.8335 16.3335 6.3585 16.3335 7.00016Z" fill="black"/>
</svg>
