<svg width="18" height="18" viewBox="0 0 18 18" fill="none" xmlns="http://www.w3.org/2000/svg">
<path d="M1.99992 13.6666H4.33325V16C4.33325 16.6416 4.85825 17.1666 5.49992 17.1666C6.14159 17.1666 6.66659 16.6416 6.66659 16V12.5C6.66659 11.8583 6.14159 11.3333 5.49992 11.3333H1.99992C1.35825 11.3333 0.833252 11.8583 0.833252 12.5C0.833252 13.1416 1.35825 13.6666 1.99992 13.6666ZM4.33325 4.33331H1.99992C1.35825 4.33331 0.833252 4.85831 0.833252 5.49998C0.833252 6.14165 1.35825 6.66665 1.99992 6.66665H5.49992C6.14159 6.66665 6.66659 6.14165 6.66659 5.49998V1.99998C6.66659 1.35831 6.14159 0.833313 5.49992 0.833313C4.85825 0.833313 4.33325 1.35831 4.33325 1.99998V4.33331ZM12.4999 17.1666C13.1416 17.1666 13.6666 16.6416 13.6666 16V13.6666H15.9999C16.6416 13.6666 17.1666 13.1416 17.1666 12.5C17.1666 11.8583 16.6416 11.3333 15.9999 11.3333H12.4999C11.8583 11.3333 11.3333 11.8583 11.3333 12.5V16C11.3333 16.6416 11.8583 17.1666 12.4999 17.1666ZM13.6666 4.33331V1.99998C13.6666 1.35831 13.1416 0.833313 12.4999 0.833313C11.8583 0.833313 11.3333 1.35831 11.3333 1.99998V5.49998C11.3333 6.14165 11.8583 6.66665 12.4999 6.66665H15.9999C16.6416 6.66665 17.1666 6.14165 17.1666 5.49998C17.1666 4.85831 16.6416 4.33331 15.9999 4.33331H13.6666Z" fill="black"/>
</svg>
