<svg width="17" height="16" viewBox="0 0 17 16" fill="none" xmlns="http://www.w3.org/2000/svg">
<path d="M7.40742 13.684C8.92547 13.6837 10.3998 13.1755 11.5956 12.2403L15.3553 16L16.5646 14.7907L12.8049 11.031C13.7405 9.83508 14.2491 8.36043 14.2494 6.84199C14.2494 3.06949 11.1799 0 7.40742 0C3.63492 0 0.56543 3.06949 0.56543 6.84199C0.56543 10.6145 3.63492 13.684 7.40742 13.684ZM7.40742 1.7105C10.2374 1.7105 12.5389 4.01197 12.5389 6.84199C12.5389 9.67201 10.2374 11.9735 7.40742 11.9735C4.5774 11.9735 2.27593 9.67201 2.27593 6.84199C2.27593 4.01197 4.5774 1.7105 7.40742 1.7105Z" fill="#A4A4A4"/>
</svg>
