<svg width="29" height="29" viewBox="0 0 29 29" fill="none" xmlns="http://www.w3.org/2000/svg">
<path d="M20.6857 15.6143H15.6143V20.6857C15.6143 21.2436 15.1579 21.7 14.6 21.7C14.0421 21.7 13.5857 21.2436 13.5857 20.6857V15.6143H8.51429C7.95643 15.6143 7.5 15.1579 7.5 14.6C7.5 14.0421 7.95643 13.5857 8.51429 13.5857H13.5857V8.51429C13.5857 7.95643 14.0421 7.5 14.6 7.5C15.1579 7.5 15.6143 7.95643 15.6143 8.51429V13.5857H20.6857C21.2436 13.5857 21.7 14.0421 21.7 14.6C21.7 15.1579 21.2436 15.6143 20.6857 15.6143Z" fill="black"/>
</svg>
