<svg width="28" height="27" viewBox="0 0 28 27" fill="none" xmlns="http://www.w3.org/2000/svg">
<path d="M9.81394 15.5C9.81394 16.0523 9.36622 16.5 8.81394 16.5H0.999939C0.447654 16.5 -6.10352e-05 16.9477 -6.10352e-05 17.5V18.5C-6.10352e-05 19.0523 0.447654 19.5 0.999939 19.5H8.81394C9.36622 19.5 9.81394 19.9477 9.81394 20.5V21.4583C9.81394 22.3666 10.927 22.8045 11.5458 22.1397L14.7656 18.6814C15.123 18.2975 15.123 17.7025 14.7656 17.3186L11.5458 13.8603C10.927 13.1955 9.81394 13.6334 9.81394 14.5417V15.5ZM16.454 13.1397C17.0729 13.8045 18.1859 13.3666 18.1859 12.4583V11.5C18.1859 10.9477 18.6337 10.5 19.1859 10.5H26.9999C27.5522 10.5 27.9999 10.0523 27.9999 9.5V8.5C27.9999 7.94772 27.5522 7.5 26.9999 7.5H19.1859C18.6337 7.5 18.1859 7.05228 18.1859 6.5V5.54167C18.1859 4.63344 17.0729 4.19553 16.454 4.86026L13.2343 8.31859C12.8769 8.70255 12.8769 9.29745 13.2343 9.68141L16.454 13.1397Z" fill="black"/>
</svg>
