<svg width="33" height="33" viewBox="0 0 33 33" fill="none" xmlns="http://www.w3.org/2000/svg">
<path d="M16.5 33C25.6127 33 33 25.6127 33 16.5C33 7.3873 25.6127 0 16.5 0C7.3873 0 0 7.3873 0 16.5C0 25.6127 7.3873 33 16.5 33Z" fill="#C9F9CD"/>
<path d="M16.5002 9.47704C18.787 9.47704 19.0603 9.48477 19.9626 9.52602C22.2855 9.63172 23.3683 10.7326 23.474 13.0374C23.5153 13.9398 23.523 14.2131 23.523 16.4998C23.523 18.7866 23.5153 19.0599 23.474 19.9623C23.3683 22.2645 22.2855 23.368 19.9626 23.4737C19.0577 23.5149 18.7896 23.5227 16.5002 23.5227C14.2108 23.5227 13.9401 23.5149 13.0378 23.4737C10.7097 23.368 9.63209 22.2594 9.52639 19.9597C9.48514 19.0573 9.4774 18.7866 9.4774 16.4973C9.4774 14.2079 9.48771 13.9398 9.52639 13.0348C9.63209 10.73 10.7149 9.62915 13.0378 9.52344C13.9427 9.48219 14.2134 9.47446 16.5002 9.47446V9.47704ZM16.5002 7.93274C14.1722 7.93274 13.8808 7.94305 12.9682 7.9843C9.85639 8.1261 8.12646 9.85344 7.98467 12.9678C7.94342 13.8831 7.93311 14.1744 7.93311 16.4998C7.93311 18.8253 7.94342 19.1192 7.98467 20.0319C8.12646 23.1437 9.85381 24.8736 12.9682 25.0154C13.8834 25.0566 14.1747 25.067 16.5002 25.067C18.8257 25.067 19.1196 25.0566 20.0322 25.0154C23.1415 24.8736 24.874 23.1463 25.0158 20.0319C25.057 19.1192 25.0673 18.8253 25.0673 16.4998C25.0673 14.1744 25.057 13.8805 25.0158 12.9678C24.8765 9.8586 23.1466 8.1261 20.0322 7.9843C19.117 7.94305 18.8257 7.93274 16.4976 7.93274H16.5002ZM16.5002 12.1016C14.0716 12.1016 12.1019 14.0713 12.1019 16.4998C12.1019 18.9284 14.0716 20.9007 16.5002 20.9007C18.9288 20.9007 20.8985 18.931 20.8985 16.4998C20.8985 14.0687 18.9288 12.1016 16.5002 12.1016ZM16.5002 19.3564C14.9224 19.3564 13.6437 18.0777 13.6437 16.4998C13.6437 14.922 14.9224 13.6433 16.5002 13.6433C18.078 13.6433 19.3568 14.922 19.3568 16.4998C19.3568 18.0777 18.078 19.3564 16.5002 19.3564ZM21.0738 10.9002C20.5066 10.9002 20.0451 11.3616 20.0451 11.9288C20.0451 12.496 20.5066 12.9575 21.0738 12.9575C21.641 12.9575 22.1025 12.496 22.1025 11.9288C22.1025 11.3616 21.6436 10.9002 21.0738 10.9002Z" fill="#094550"/>
</svg>
