<svg width="29" height="28" viewBox="0 0 29 28" fill="none" xmlns="http://www.w3.org/2000/svg">
<g clip-path="url(#clip0_16_5648)">
<path d="M9 23H5.5C4.95 23 4.5 22.55 4.5 22V12C4.5 11.45 4.95 11 5.5 11H9C9.55 11 10 11.45 10 12V22C10 22.55 9.55 23 9 23ZM16.25 5H12.75C12.2 5 11.75 5.45 11.75 6V22C11.75 22.55 12.2 23 12.75 23H16.25C16.8 23 17.25 22.55 17.25 22V6C17.25 5.45 16.8 5 16.25 5ZM23.5 13H20C19.45 13 19 13.45 19 14V22C19 22.55 19.45 23 20 23H23.5C24.05 23 24.5 22.55 24.5 22V14C24.5 13.45 24.05 13 23.5 13Z" fill="#0A4550"/>
</g>
<defs>
<clipPath id="clip0_16_5648">
<rect width="28" height="28" fill="white" transform="translate(0.5)"/>
</clipPath>
</defs>
</svg>
