<svg width="44" height="36" viewBox="0 0 44 36" fill="none" xmlns="http://www.w3.org/2000/svg">
<g clip-path="url(#clip0_1215_3408)">
<path d="M21.157 24.8182L16.0127 13.0033L14.5879 11.6206V11.1113H21.705V11.6206L19.9761 13.0033L23.1864 20.7726L25.9512 13.0033L24.2223 11.6206V11.1113H29.4054V11.6206L27.7791 13.0033L23.1828 24.8182H21.1499H21.157Z" fill="#C9F9CD"/>
<path d="M4.48673 16.6414L4.59279 17.2284L5.11959 16.9491C5.19384 16.9102 6.99344 15.9412 7.90561 14.0811C8.82132 12.2174 8.47837 10.2159 8.46423 10.131L8.35816 9.54395L7.83136 9.82332C7.75712 9.86222 5.95398 10.8312 5.04534 12.6913C4.13317 14.5514 4.47612 16.5565 4.49026 16.6414H4.48673Z" fill="#C9F9CD"/>
<path d="M7.32936 18.7846L6.87328 18.4062L6.65054 18.9544C6.61872 19.0357 5.85857 20.9347 6.35001 22.9434C6.84499 24.9556 8.39357 26.2569 8.46074 26.3135L8.91683 26.6919L9.1431 26.1438C9.17492 26.0624 9.9386 24.1634 9.44363 22.1548C8.95218 20.1426 7.40008 18.8377 7.3329 18.7846H7.32936Z" fill="#C9F9CD"/>
<path d="M13.5059 29.8221C14.9661 31.2791 16.9637 31.5726 17.045 31.5832L17.6248 31.6645L17.5364 31.0846C17.5223 30.9997 17.197 28.9804 15.7368 27.527C14.2766 26.0736 12.2791 25.7801 12.1942 25.7659L11.6108 25.6846L11.7028 26.2645C11.7169 26.3494 12.0492 28.3722 13.5059 29.8221Z" fill="#C9F9CD"/>
<path d="M5.52961 23.3184L5.48718 22.742C5.48011 22.6571 5.31394 20.6273 3.97397 19.0819C2.63045 17.5365 0.650542 17.1086 0.565689 17.0909L0 16.9707L0.0424267 17.5471C0.0494978 17.632 0.212133 19.6654 1.55918 21.2108C2.90269 22.7526 4.87907 23.1841 4.96392 23.2017L5.52961 23.322V23.3184Z" fill="#C9F9CD"/>
<path d="M8.17074 27.3458C6.19436 26.9179 4.32405 27.7489 4.24274 27.7843L3.7124 28.0248L4.09071 28.4668C4.14728 28.5304 5.48372 30.0617 7.47777 30.4967C7.88789 30.5851 8.29095 30.6204 8.67279 30.6204C10.1613 30.6204 11.3457 30.0864 11.4058 30.0546L11.929 29.8141L11.5543 29.3756C11.4977 29.312 10.1648 27.7807 8.1672 27.3458H8.17074Z" fill="#C9F9CD"/>
<path d="M3.55329 12.5568L4.0023 12.9493L4.23919 12.4012C4.27454 12.3234 5.06651 10.4385 4.60688 8.41923C4.1508 6.39644 2.62697 5.05263 2.56333 4.99605L2.11432 4.60352L1.87744 5.15165C1.84208 5.22945 1.05012 7.11432 1.50974 9.13711C1.96936 11.1564 3.49318 12.5037 3.55682 12.5603L3.55329 12.5568Z" fill="#C9F9CD"/>
<path d="M6.45941 7.43657L7.00389 7.18902C7.08167 7.15366 8.93784 6.29786 9.95961 4.49786C10.9885 2.69433 10.7693 0.675072 10.7586 0.5902L10.6915 -0.00390625L10.147 0.240102C10.0692 0.275465 8.21305 1.12772 7.18774 2.93126C6.16243 4.73126 6.3781 6.75405 6.3887 6.83892L6.45588 7.43303L6.45941 7.43657Z" fill="#C9F9CD"/>
<path d="M35.6454 9.54455L35.5393 10.1316C35.5251 10.2165 35.1822 12.218 36.0979 14.0817C37.0101 15.9418 38.8061 16.9108 38.8839 16.9497L39.4107 17.229L39.5168 16.642C39.5309 16.5571 39.8739 14.5556 38.9617 12.6919C38.0495 10.8282 36.2499 9.86282 36.1757 9.82039L35.6489 9.54102L35.6454 9.54455Z" fill="#C9F9CD"/>
<path d="M37.1302 18.4062L36.6741 18.7846C36.6069 18.8377 35.0548 20.1426 34.5634 22.1548C34.072 24.1634 34.8321 26.0624 34.8639 26.1438L35.0902 26.6919L35.5463 26.3135C35.6135 26.2605 37.162 24.9556 37.657 22.9434C38.1484 20.9347 37.3883 19.0357 37.3565 18.9579L37.1337 18.4098L37.1302 18.4062Z" fill="#C9F9CD"/>
<path d="M30.4944 29.8221C31.9511 28.3722 32.2834 26.3494 32.2975 26.2645L32.3895 25.6846L31.8061 25.7659C31.7212 25.7765 29.7237 26.0736 28.2635 27.527C26.8068 28.9804 26.478 30.9997 26.4639 31.0881L26.3755 31.6681L26.9553 31.5867C27.0402 31.5761 29.0378 31.2826 30.4944 29.8256V29.8221Z" fill="#C9F9CD"/>
<path d="M43.4341 17.0876C43.3493 17.1053 41.3729 17.5332 40.0259 19.0786C38.6823 20.624 38.5197 22.6538 38.5126 22.7387L38.4702 23.3151L39.0359 23.1949C39.1208 23.1772 41.0971 22.7458 42.4406 21.2039C43.7877 19.6586 43.9503 17.6287 43.9574 17.5403L43.9998 16.9639L43.4341 17.0841V17.0876Z" fill="#C9F9CD"/>
<path d="M35.8326 27.3462C33.835 27.7811 32.5021 29.3088 32.4456 29.376L32.0708 29.8145L32.5941 30.055C32.6577 30.0833 33.8386 30.6208 35.327 30.6208C35.7089 30.6208 36.1119 30.5855 36.5221 30.4971C38.5197 30.0621 39.8561 28.5344 39.9091 28.4672L40.2874 28.0251L39.7571 27.7847C39.6793 27.7493 37.809 26.9147 35.8291 27.3462H35.8326Z" fill="#C9F9CD"/>
<path d="M39.998 12.9499L40.447 12.5574C40.5106 12.5008 42.0345 11.157 42.4941 9.13418C42.9537 7.11139 42.1582 5.23006 42.1264 5.14872L41.8895 4.60059L41.4405 4.99312C41.3769 5.0497 39.853 6.39351 39.3969 8.4163C38.9373 10.4356 39.7293 12.3204 39.7646 12.3982L40.0015 12.9464L39.998 12.9499Z" fill="#C9F9CD"/>
<path d="M36.9961 7.19232L37.5406 7.43986L37.6078 6.84576C37.6184 6.76089 37.834 4.74163 36.8087 2.9381C35.7834 1.13456 33.9273 0.282301 33.8495 0.246938L33.305 0.00292969L33.2378 0.597036C33.2272 0.681908 33.0115 2.70116 34.0369 4.5047C35.0622 6.3047 36.9148 7.16049 36.9961 7.19586V7.19232Z" fill="#C9F9CD"/>
<path d="M28.3832 32.5905C26.4387 31.9646 24.5189 32.6224 24.4375 32.6506L23.8931 32.8416L24.2254 33.3119C24.2643 33.3685 25.0209 34.4259 26.3079 35.1685C26.6402 35.3595 27.0044 35.5328 27.4039 35.6601C29.3484 36.286 31.2718 35.6318 31.3531 35.6035L31.9011 35.4125L31.5617 34.9387C31.5122 34.8679 30.3101 33.2094 28.3832 32.5905Z" fill="#C9F9CD"/>
<path d="M15.6058 32.6579C17.5503 32.032 19.4701 32.6897 19.5515 32.718L20.0959 32.909L19.7636 33.3793C19.7247 33.4359 18.9681 34.4933 17.6811 35.2359C17.3488 35.4269 16.9846 35.6001 16.5851 35.7275C14.6406 36.3534 12.7172 35.6992 12.6359 35.6709L12.0879 35.4799L12.4273 35.006C12.4768 34.9353 13.6789 33.2768 15.6058 32.6579Z" fill="#C9F9CD"/>
</g>
<defs>
<clipPath id="clip0_1215_3408">
<rect width="44" height="36" fill="white"/>
</clipPath>
</defs>
</svg>
