<svg width="16" height="21" viewBox="0 0 16 21" fill="none" xmlns="http://www.w3.org/2000/svg">
<path d="M15.3936 15.3041L14.0587 13.9692V8.79545C14.0587 5.61874 12.3617 2.95941 9.40232 2.25577V1.55214C9.40232 0.693289 8.70903 0 7.85018 0C6.99133 0 6.29804 0.693289 6.29804 1.55214V2.25577C3.32828 2.95941 1.64162 5.60839 1.64162 8.79545V13.9692L0.306783 15.3041C-0.345116 15.956 0.110178 17.0735 1.03111 17.0735H14.6589C15.5902 17.0735 16.0455 15.956 15.3936 15.3041ZM11.9892 15.004H3.71114V8.79545C3.71114 6.22925 5.27363 4.13904 7.85018 4.13904C10.4267 4.13904 11.9892 6.22925 11.9892 8.79545V15.004ZM7.85018 20.1778C8.98841 20.1778 9.91969 19.2465 9.91969 18.1083H5.78066C5.78066 19.2465 6.70159 20.1778 7.85018 20.1778Z" fill="white"/>
</svg>
