<svg width="29" height="25" viewBox="0 0 29 25" fill="none" xmlns="http://www.w3.org/2000/svg">
<g clip-path="url(#clip0_90_1265)">
<path d="M13.9635 17.235L10.6899 9.03016L9.7832 8.06994V7.71631H14.3123V8.06994L13.2121 9.03016L15.255 14.4255L17.0144 9.03016L15.9142 8.06994V7.71631H19.2125V8.06994L18.1776 9.03016L15.2527 17.235H13.959H13.9635Z" fill="#024551"/>
<path d="M3.35488 11.5572L3.42238 11.9649L3.75761 11.7709C3.80486 11.7438 4.95006 11.071 5.53053 9.7792C6.11326 8.485 5.89502 7.09502 5.88602 7.03608L5.81852 6.62842L5.48328 6.82243C5.43604 6.84944 4.28859 7.52233 3.71036 8.81408C3.12989 10.1058 3.34813 11.4983 3.35713 11.5572H3.35488Z" fill="#024551"/>
<path d="M5.16423 13.0455L4.87399 12.7827L4.73225 13.1634C4.712 13.2198 4.22827 14.5386 4.54101 15.9335C4.85599 17.3308 5.84145 18.2346 5.8842 18.2739L6.17443 18.5366L6.31843 18.156C6.33868 18.0995 6.82466 16.7808 6.50967 15.3859C6.19693 13.9885 5.20923 13.0823 5.16648 13.0455H5.16423Z" fill="#024551"/>
<path d="M9.09462 20.7097C10.0238 21.7215 11.295 21.9253 11.3468 21.9327L11.7158 21.9892L11.6595 21.5864C11.6505 21.5275 11.4435 20.1252 10.5143 19.1159C9.5851 18.1066 8.3139 17.9027 8.25991 17.8929L7.88867 17.8364L7.94717 18.2392C7.95617 18.2981 8.16766 19.7028 9.09462 20.7097Z" fill="#024551"/>
<path d="M4.01884 16.1938L3.99184 15.7935C3.98734 15.7346 3.8816 14.3249 3.02889 13.2518C2.17393 12.1786 0.913982 11.8814 0.859984 11.8691L0.5 11.7856L0.526999 12.1859C0.531499 12.2449 0.634994 13.657 1.49221 14.7301C2.34717 15.8009 3.60486 16.1005 3.65886 16.1128L4.01884 16.1963V16.1938Z" fill="#024551"/>
<path d="M5.69943 18.9911C4.44173 18.6939 3.25154 19.271 3.19979 19.2956L2.8623 19.4626L3.10304 19.7696C3.13904 19.8138 3.9895 20.8771 5.25845 21.1792C5.51944 21.2406 5.77593 21.2651 6.01891 21.2651C6.96612 21.2651 7.71984 20.8943 7.75809 20.8722L8.09107 20.7052L7.85258 20.4007C7.81658 20.3565 6.96837 19.2931 5.69718 18.9911H5.69943Z" fill="#024551"/>
<path d="M2.7611 8.72084L3.04683 8.99343L3.19758 8.61278C3.22007 8.55876 3.72405 7.24982 3.43157 5.84756C3.14133 4.44284 2.17162 3.50964 2.13112 3.47035L1.84539 3.19775L1.69464 3.5784C1.67214 3.63243 1.16817 4.94137 1.46065 6.34608C1.75314 7.74834 2.72285 8.684 2.76335 8.72329L2.7611 8.72084Z" fill="#024551"/>
<path d="M4.6108 5.16455L4.95729 4.99265C5.00678 4.96809 6.18798 4.37379 6.8382 3.12379C7.49292 1.87133 7.35343 0.469071 7.34668 0.410132L7.30393 -0.00244141L6.95745 0.167008C6.90795 0.191566 5.72675 0.783413 5.07428 2.03587C4.42181 3.28587 4.55905 4.69058 4.5658 4.74952L4.60855 5.1621L4.6108 5.16455Z" fill="#024551"/>
<path d="M23.1837 6.62843L23.1162 7.03609C23.1072 7.09503 22.889 8.48501 23.4717 9.77922C24.0522 11.071 25.1951 11.7439 25.2446 11.7709L25.5799 11.9649L25.6474 11.5572C25.6564 11.4983 25.8746 10.1083 25.2941 8.81409C24.7136 7.51989 23.5685 6.84945 23.5212 6.81998L23.186 6.62598L23.1837 6.62843Z" fill="#024551"/>
<path d="M24.1285 12.7827L23.8383 13.0455C23.7956 13.0823 22.8078 13.9885 22.4951 15.3859C22.1824 16.7808 22.6661 18.0995 22.6863 18.156L22.8303 18.5366L23.1206 18.2739C23.1633 18.237 24.1488 17.3308 24.4638 15.9335C24.7765 14.5386 24.2928 13.2198 24.2725 13.1658L24.1308 12.7852L24.1285 12.7827Z" fill="#024551"/>
<path d="M19.9053 20.7097C20.8323 19.7028 21.0438 18.2981 21.0528 18.2392L21.1113 17.8364L20.74 17.8929C20.686 17.9003 19.4148 18.1066 18.4856 19.1159C17.5587 20.1252 17.3494 21.5275 17.3404 21.5889L17.2842 21.9916L17.6532 21.9351C17.7072 21.9278 18.9784 21.724 19.9053 20.7122V20.7097Z" fill="#024551"/>
<path d="M28.1398 11.8667C28.0858 11.879 26.8281 12.1761 25.9709 13.2493C25.116 14.3225 25.0125 15.7321 25.008 15.7911L24.981 16.1914L25.3409 16.1079C25.3949 16.0956 26.6526 15.796 27.5076 14.7253C28.3648 13.6521 28.4683 12.2425 28.4728 12.1811L28.4998 11.7808L28.1398 11.8643V11.8667Z" fill="#024551"/>
<path d="M23.3026 18.991C22.0314 19.2931 21.1832 20.354 21.1472 20.4007L20.9087 20.7052L21.2417 20.8722C21.2822 20.8918 22.0336 21.2651 22.9808 21.2651C23.2238 21.2651 23.4803 21.2406 23.7413 21.1792C25.0125 20.8771 25.863 19.8162 25.8967 19.7695L26.1375 19.4626L25.8 19.2956C25.7505 19.271 24.5603 18.6914 23.3003 18.991H23.3026Z" fill="#024551"/>
<path d="M25.953 8.99345L26.2387 8.72085C26.2792 8.68156 27.2489 7.74836 27.5414 6.34364C27.8339 4.93893 27.3277 3.63244 27.3074 3.57596L27.1567 3.19531L26.871 3.46791C26.8305 3.5072 25.8608 4.4404 25.5705 5.84512C25.278 7.24738 25.782 8.55631 25.8045 8.61034L25.9552 8.99099L25.953 8.99345Z" fill="#024551"/>
<path d="M24.0429 4.99507L24.3894 5.16698L24.4321 4.75441C24.4389 4.69547 24.5761 3.29321 23.9237 2.04075C23.2712 0.788296 22.09 0.196449 22.0405 0.171891L21.694 0.00244141L21.6513 0.415015C21.6445 0.473954 21.5073 1.87621 22.1597 3.12867C22.8122 4.37867 23.9911 4.97297 24.0429 4.99753V4.99507Z" fill="#024551"/>
<path d="M18.562 22.6328C17.3245 22.1981 16.1028 22.6549 16.0511 22.6745L15.7046 22.8071L15.9161 23.1338C15.9408 23.173 16.4223 23.9073 17.2413 24.423C17.4528 24.5557 17.6845 24.676 17.9387 24.7644C19.1762 25.1991 20.4001 24.7448 20.4519 24.7251L20.8006 24.5925L20.5846 24.2634C20.5531 24.2143 19.7882 23.0625 18.562 22.6328Z" fill="#024551"/>
<path d="M10.431 22.6796C11.6685 22.245 12.8902 22.7017 12.9419 22.7214L13.2884 22.854L13.0769 23.1806C13.0522 23.2199 12.5707 23.9542 11.7517 24.4699C11.5402 24.6025 11.3085 24.7229 11.0543 24.8113C9.81681 25.246 8.59287 24.7916 8.54112 24.772L8.19238 24.6394L8.40837 24.3103C8.43987 24.2612 9.20484 23.1094 10.431 22.6796Z" fill="#024551"/>
</g>
<defs>
<clipPath id="clip0_90_1265">
<rect width="28" height="25" fill="white" transform="translate(0.5)"/>
</clipPath>
</defs>
</svg>
