<svg width="28" height="28" viewBox="0 0 28 28" fill="none" xmlns="http://www.w3.org/2000/svg">
<path d="M20.1857 15.1143H15.1143V20.1857C15.1143 20.7436 14.6579 21.2 14.1 21.2C13.5421 21.2 13.0857 20.7436 13.0857 20.1857V15.1143H8.01429C7.45643 15.1143 7 14.6579 7 14.1C7 13.5421 7.45643 13.0857 8.01429 13.0857H13.0857V8.01429C13.0857 7.45643 13.5421 7 14.1 7C14.6579 7 15.1143 7.45643 15.1143 8.01429V13.0857H20.1857C20.7436 13.0857 21.2 13.5421 21.2 14.1C21.2 14.6579 20.7436 15.1143 20.1857 15.1143Z" fill="#0A4550"/>
</svg>
