<svg width="18" height="18" viewBox="0 0 18 18" fill="none" xmlns="http://www.w3.org/2000/svg">
<path d="M13.0316 11.5323C12.8506 11.3509 12.6048 11.249 12.3484 11.249H12.0753C12.0006 11.249 11.9288 11.22 11.8751 11.1681C11.765 11.062 11.7574 10.8887 11.8522 10.7687C12.7279 9.65981 13.2488 8.26197 13.2488 6.74938C13.2488 3.15972 10.339 0.25 6.74938 0.25C3.15972 0.25 0.25 3.15972 0.25 6.74938C0.25 10.339 3.15972 13.2488 6.74938 13.2488C8.26197 13.2488 9.65981 12.7279 10.7687 11.8522C10.8887 11.7574 11.062 11.765 11.1681 11.8751C11.22 11.9288 11.249 12.0006 11.249 12.0753V12.3484C11.249 12.6048 11.3509 12.8506 11.5323 13.0316L15.5414 17.0326C15.932 17.4225 16.5646 17.4222 16.9549 17.0319L17.0319 16.9549C17.4222 16.5646 17.4225 15.932 17.0326 15.5414L13.0316 11.5323ZM6.74938 11.249C4.25962 11.249 2.24981 9.23914 2.24981 6.74938C2.24981 4.25962 4.25962 2.24981 6.74938 2.24981C9.23914 2.24981 11.249 4.25962 11.249 6.74938C11.249 9.23914 9.23914 11.249 6.74938 11.249Z" fill="black"/>
</svg>
