<svg width="28" height="28" viewBox="0 0 28 28" fill="none" xmlns="http://www.w3.org/2000/svg">
<path d="M22.9252 10.5467L17.2785 10.0567L15.0735 4.865C14.6769 3.92 13.3235 3.92 12.9269 4.865L10.7219 10.0683L5.08687 10.5467C4.06021 10.6283 3.64021 11.9117 4.42187 12.5883L8.70354 16.2983L7.42021 21.805C7.18687 22.8083 8.27187 23.6017 9.15854 23.065L14.0002 20.1483L18.8419 23.0767C19.7285 23.6133 20.8135 22.82 20.5802 21.8167L19.2969 16.2983L23.5785 12.5883C24.3602 11.9117 23.9519 10.6283 22.9252 10.5467ZM14.0002 17.9667L9.61354 20.615L10.7802 15.6217L6.90687 12.2617L12.0169 11.8183L14.0002 7.11667L15.9952 11.83L21.1052 12.2733L17.2319 15.6333L18.3985 20.6267L14.0002 17.9667Z" fill="black"/>
</svg>
