<svg width="24" height="24" viewBox="0 0 24 24" fill="none" xmlns="http://www.w3.org/2000/svg">
<circle cx="12" cy="12" r="11" fill="#2D9CDB" stroke="#2D9CDB" stroke-width="2"/>
<path d="M7.24733 11.3424C7.01115 11.3431 6.77998 11.4106 6.58056 11.5371C6.38115 11.6637 6.22164 11.8441 6.1205 12.0576C6.01936 12.271 5.98071 12.5087 6.00902 12.7432C6.03734 12.9777 6.13147 13.1993 6.28051 13.3826L9.4578 17.2747C9.57109 17.4154 9.71631 17.527 9.88139 17.6003C10.0465 17.6736 10.2266 17.7064 10.407 17.6961C10.7926 17.6753 11.1408 17.469 11.3628 17.1298L17.9628 6.50047C17.9639 6.49871 17.965 6.49695 17.9662 6.49521C18.0281 6.40012 18.008 6.21169 17.8802 6.09332C17.8451 6.06081 17.8037 6.03583 17.7586 6.01993C17.7135 6.00403 17.6655 5.99753 17.6178 6.00084C17.5701 6.00415 17.5235 6.0172 17.481 6.03918C17.4385 6.06117 17.401 6.09162 17.3707 6.12866C17.3683 6.13157 17.3659 6.13444 17.3634 6.13727L10.7071 13.6578C10.6818 13.6864 10.651 13.7097 10.6166 13.7264C10.5822 13.743 10.5448 13.7526 10.5067 13.7547C10.4685 13.7568 10.4303 13.7512 10.3943 13.7384C10.3583 13.7256 10.3252 13.7057 10.297 13.68L8.08788 11.6697C7.85845 11.4594 7.55858 11.3426 7.24733 11.3424Z" fill="white"/>
</svg>
