<svg width="28" height="28" viewBox="0 0 28 28" fill="none" xmlns="http://www.w3.org/2000/svg">
<path d="M7.5 4C5.58087 4 4 5.58087 4 7.5V21.5C4 23.4191 5.58087 25 7.5 25H21.5C23.4191 25 25 23.4191 25 21.5V7.5C25 5.58087 23.4191 4 21.5 4H7.5ZM7.5 6.33333H21.5C22.1592 6.33333 22.6667 6.8408 22.6667 7.5V21.5C22.6667 22.1592 22.1592 22.6667 21.5 22.6667H7.5C6.8408 22.6667 6.33333 22.1592 6.33333 21.5V7.5C6.33333 6.8408 6.8408 6.33333 7.5 6.33333ZM14.5 8.66667V16.8333C14.5 17.4925 13.9925 18 13.3333 18C12.6741 18 12.1667 17.4925 12.1667 16.8333C12.1667 16.1741 12.6741 15.6667 13.3333 15.6667V13.3333C11.4142 13.3333 9.83333 14.9142 9.83333 16.8333C9.83333 18.7525 11.4142 20.3333 13.3333 20.3333C15.2525 20.3333 16.8333 18.7525 16.8333 16.8333V12.4378C17.5522 12.9499 18.3023 13.3333 19.1667 13.3333V11C19.1114 11 18.3065 10.7444 17.7448 10.2549C17.1831 9.76534 16.8333 9.15082 16.8333 8.66667H14.5Z" fill="#D5D5D5"/>
</svg>
