<svg width="20" height="20" viewBox="0 0 20 20" fill="none" xmlns="http://www.w3.org/2000/svg">
<path d="M12.4968 3.32333C12.3755 3.32492 12.2559 3.35297 12.1466 3.40554C12.0372 3.45811 11.9407 3.53393 11.8636 3.62769L2.69698 14.461C2.59421 14.5824 2.52829 14.7306 2.50701 14.8881C2.48573 15.0457 2.50997 15.2061 2.57688 15.3504C2.64378 15.4946 2.75056 15.6167 2.8846 15.7022C3.01864 15.7878 3.17436 15.8332 3.33337 15.8331H15H16.6667C16.7771 15.8347 16.8868 15.8143 16.9892 15.7731C17.0917 15.7319 17.185 15.6708 17.2636 15.5932C17.3423 15.5157 17.4047 15.4233 17.4473 15.3214C17.49 15.2195 17.5119 15.1102 17.5119 14.9998C17.5119 14.8893 17.49 14.78 17.4473 14.6781C17.4047 14.5762 17.3423 14.4838 17.2636 14.4063C17.185 14.3288 17.0917 14.2676 16.9892 14.2264C16.8868 14.1853 16.7771 14.1649 16.6667 14.1664H16.5511C16.2489 11.7148 15.3195 9.39243 14.03 7.45582C13.72 6.98998 13.0447 6.95337 12.6872 7.3842C12.4497 7.67087 12.4407 8.07518 12.6465 8.38518C13.7559 10.0592 14.5771 12.0566 14.8731 14.1664H5.13024L13.1364 4.70517C13.2425 4.58387 13.3111 4.43443 13.3339 4.27495C13.3568 4.11546 13.333 3.95277 13.2653 3.80656C13.1976 3.66035 13.089 3.53689 12.9526 3.45113C12.8162 3.36537 12.6579 3.32098 12.4968 3.32333Z" fill="black"/>
</svg>
