<svg width="33" height="33" viewBox="0 0 33 33" fill="none" xmlns="http://www.w3.org/2000/svg">
<path d="M16.5 33C25.6127 33 33 25.6127 33 16.5C33 7.3873 25.6127 0 16.5 0C7.3873 0 0 7.3873 0 16.5C0 25.6127 7.3873 33 16.5 33Z" fill="#C9F9CD"/>
<path d="M26.48 11.3644C25.802 11.666 25.0749 11.8671 24.3118 11.9573C25.0904 11.4907 25.6911 10.7508 25.9721 9.86906C25.2425 10.3022 24.4356 10.6167 23.5745 10.7843C22.8861 10.0495 21.9038 9.5932 20.8185 9.5932C18.3821 9.5932 16.5903 11.8671 17.1421 14.2261C14.0071 14.0688 11.2253 12.5658 9.36385 10.2816C8.37385 11.978 8.8508 14.1977 10.5317 15.3218C9.91299 15.3012 9.33033 15.1336 8.82244 14.85C8.78119 16.598 10.0342 18.2351 11.8492 18.5986C11.3181 18.743 10.7354 18.7765 10.145 18.663C10.6246 20.1635 12.0193 21.2541 13.6719 21.285C12.0863 22.5302 10.0857 23.0845 8.08252 22.8499C9.75314 23.9198 11.7383 24.5463 13.8678 24.5463C20.8752 24.5463 24.8352 18.627 24.5954 13.3186C25.3328 12.7849 25.9721 12.1223 26.48 11.3644Z" fill="#094550"/>
</svg>
