<svg width="78" height="40" viewBox="0 0 78 40" fill="none" xmlns="http://www.w3.org/2000/svg">
<path d="M47.3906 39.5344C47.0318 39.8091 46.5334 39.8091 46.1746 39.5344L32.392 28.9794C32.1449 28.7902 32 28.4967 32 28.1855V1C32 0.447715 32.4477 0 33 0H60.5652C61.1175 0 61.5652 0.447715 61.5652 1V28.1855C61.5652 28.4967 61.4203 28.7902 61.1732 28.9794L47.3906 39.5344Z" fill="white"/>
<path d="M42.4396 10.679C42.9268 10.6823 43.4008 10.7685 43.8615 10.9375C44.3255 11.1032 44.7431 11.375 45.1143 11.7528C45.4856 12.1274 45.7805 12.6295 45.9993 13.2592C46.218 13.889 46.3274 14.6679 46.3274 15.5959C46.3307 16.4709 46.2379 17.2531 46.049 17.9425C45.8634 18.6286 45.5966 19.2086 45.2486 19.6825C44.9006 20.1565 44.4813 20.5178 43.9908 20.7663C43.5002 21.0149 42.9484 21.1392 42.3352 21.1392C41.6922 21.1392 41.1222 21.0133 40.625 20.7614C40.1312 20.5095 39.7318 20.1648 39.4268 19.7273C39.1219 19.2898 38.9347 18.7893 38.8651 18.2259H40.6797C40.7725 18.6302 40.9614 18.9517 41.2464 19.1903C41.5348 19.4257 41.8977 19.5433 42.3352 19.5433C43.0412 19.5433 43.5848 19.2367 43.9659 18.6236C44.3471 18.0104 44.5376 17.1586 44.5376 16.0682H44.468C44.3056 16.3598 44.0952 16.6117 43.8366 16.8239C43.5781 17.0327 43.2848 17.1934 42.9567 17.3061C42.6319 17.4188 42.2872 17.4751 41.9226 17.4751C41.326 17.4751 40.7891 17.3326 40.3118 17.0476C39.8378 16.7625 39.4616 16.3714 39.1832 15.8743C38.9081 15.3771 38.7689 14.8087 38.7656 14.169C38.7656 13.5062 38.9181 12.9112 39.223 12.3842C39.5313 11.8539 39.9605 11.4363 40.5107 11.1314C41.0608 10.8232 41.7038 10.6723 42.4396 10.679ZM42.4446 12.1705C42.0866 12.1705 41.7635 12.2583 41.4751 12.4339C41.1901 12.6063 40.9647 12.8416 40.799 13.1399C40.6366 13.4349 40.5554 13.7647 40.5554 14.1293C40.5587 14.4905 40.6399 14.8187 40.799 15.1136C40.9614 15.4086 41.1818 15.6423 41.4602 15.8146C41.742 15.987 42.0634 16.0732 42.4247 16.0732C42.6932 16.0732 42.9434 16.0218 43.1754 15.919C43.4074 15.8163 43.6096 15.6738 43.782 15.4915C43.9576 15.3059 44.0935 15.0954 44.1896 14.8601C44.2891 14.6248 44.3371 14.3762 44.3338 14.1143C44.3338 13.7663 44.2509 13.4448 44.0852 13.1499C43.9228 12.8549 43.6991 12.6179 43.4141 12.4389C43.1323 12.2599 42.8092 12.1705 42.4446 12.1705ZM51.6178 10.679C52.105 10.6823 52.5789 10.7685 53.0396 10.9375C53.5036 11.1032 53.9213 11.375 54.2925 11.7528C54.6637 12.1274 54.9587 12.6295 55.1774 13.2592C55.3962 13.889 55.5055 14.6679 55.5055 15.5959C55.5089 16.4709 55.4161 17.2531 55.2271 17.9425C55.0415 18.6286 54.7747 19.2086 54.4267 19.6825C54.0787 20.1565 53.6594 20.5178 53.1689 20.7663C52.6784 21.0149 52.1265 21.1392 51.5134 21.1392C50.8704 21.1392 50.3003 21.0133 49.8031 20.7614C49.3093 20.5095 48.9099 20.1648 48.605 19.7273C48.3 19.2898 48.1128 18.7893 48.0432 18.2259H49.8578C49.9506 18.6302 50.1395 18.9517 50.4246 19.1903C50.7129 19.4257 51.0759 19.5433 51.5134 19.5433C52.2193 19.5433 52.7629 19.2367 53.144 18.6236C53.5252 18.0104 53.7158 17.1586 53.7158 16.0682H53.6462C53.4838 16.3598 53.2733 16.6117 53.0148 16.8239C52.7563 17.0327 52.4629 17.1934 52.1348 17.3061C51.81 17.4188 51.4653 17.4751 51.1007 17.4751C50.5041 17.4751 49.9672 17.3326 49.4899 17.0476C49.016 16.7625 48.6398 16.3714 48.3614 15.8743C48.0863 15.3771 47.9471 14.8087 47.9438 14.169C47.9438 13.5062 48.0962 12.9112 48.4011 12.3842C48.7094 11.8539 49.1386 11.4363 49.6888 11.1314C50.239 10.8232 50.882 10.6723 51.6178 10.679ZM51.6227 12.1705C51.2648 12.1705 50.9416 12.2583 50.6533 12.4339C50.3682 12.6063 50.1429 12.8416 49.9771 13.1399C49.8147 13.4349 49.7335 13.7647 49.7335 14.1293C49.7368 14.4905 49.818 14.8187 49.9771 15.1136C50.1395 15.4086 50.3599 15.6423 50.6384 15.8146C50.9201 15.987 51.2416 16.0732 51.6028 16.0732C51.8713 16.0732 52.1215 16.0218 52.3536 15.919C52.5856 15.8163 52.7877 15.6738 52.9601 15.4915C53.1357 15.3059 53.2716 15.0954 53.3678 14.8601C53.4672 14.6248 53.5152 14.3762 53.5119 14.1143C53.5119 13.7663 53.4291 13.4448 53.2634 13.1499C53.1009 12.8549 52.8772 12.6179 52.5922 12.4389C52.3105 12.2599 51.9873 12.1705 51.6227 12.1705Z" fill="#0A4550"/>
</svg>
