<svg width="28" height="28" viewBox="0 0 28 28" fill="none" xmlns="http://www.w3.org/2000/svg">
<path d="M8.78316 5.00345C8.55087 4.98329 8.31017 5.05127 8.11741 5.2135L5.32443 7.56323C4.93981 7.88679 4.8896 8.46294 5.21406 8.84847C5.53761 9.23308 6.11377 9.2833 6.49929 8.95883L9.29227 6.6091C9.67689 6.28555 9.7271 5.71026 9.40264 5.32565C9.24041 5.13289 9.01546 5.02362 8.78316 5.00345ZM19.2484 5.00345C19.0161 5.0235 18.7911 5.13111 18.6289 5.32387C18.3044 5.7094 18.3537 6.28555 18.7393 6.6091L21.5322 8.95883C21.9178 9.28238 22.493 9.23221 22.8175 8.84669C23.141 8.46116 23.0909 7.8877 22.7053 7.56323L19.9124 5.2135C19.7196 5.05173 19.4807 4.9834 19.2484 5.00345ZM14.0149 6.9046C9.48425 6.9046 5.81218 10.5767 5.81218 15.1073C5.81218 19.6379 9.48425 23.31 14.0149 23.31C18.5455 23.31 22.2176 19.6379 22.2176 15.1073C22.2176 10.5767 18.5455 6.9046 14.0149 6.9046ZM14.0149 11.4617C14.518 11.4617 14.9263 11.87 14.9263 12.3731V14.1959H16.7491C17.2522 14.1959 17.6605 14.6042 17.6605 15.1073C17.6605 15.6104 17.2522 16.0187 16.7491 16.0187H14.9263V17.8415C14.9263 18.3446 14.518 18.7529 14.0149 18.7529C13.5118 18.7529 13.1035 18.3446 13.1035 17.8415V16.0187H11.2806C10.7775 16.0187 10.3692 15.6104 10.3692 15.1073C10.3692 14.6042 10.7775 14.1959 11.2806 14.1959H13.1035V12.3731C13.1035 11.87 13.5118 11.4617 14.0149 11.4617Z" fill="black"/>
</svg>
